<svg id="Capa_1" enable-background="new 0 0 512 512" height="512" viewBox="0 0 512 512" width="512" xmlns="http://www.w3.org/2000/svg"><g><path d="m376 396h40c11.046 0 20-8.954 20-20s-8.954-20-20-20h-40c-11.046 0-20 8.954-20 20s8.954 20 20 20z"/><path d="m100 512h312c55.141 0 100-44.86 100-100v-312c0-55.14-44.859-100-100-100h-312c-55.14 0-100 44.86-100 100v312c0 55.14 44.86 100 100 100zm-60-412c0-33.084 26.916-60 60-60h312c33.084 0 60 26.916 60 60v312c0 33.084-26.916 60-60 60h-312c-33.084 0-60-26.916-60-60z"/><path d="m216 276c9.279 0 18.55-2.183 26.808-6.312l79.999-40c20.474-10.236 33.193-30.808 33.193-53.688s-12.719-43.452-33.192-53.688l-79.999-40c-8.259-4.129-17.529-6.312-26.809-6.312-33.084 0-60 26.916-60 60v80c0 33.084 26.916 60 60 60zm-20-140c0-11.028 8.972-20 20-20 3.146 0 6.146.703 8.919 2.09l80 40c6.835 3.417 11.081 10.28 11.081 17.91s-4.246 14.493-11.081 17.911l-80 40c-2.773 1.386-5.773 2.089-8.919 2.089-11.028 0-20-8.972-20-20z"/><path d="m100 396h176v20c0 11.046 8.954 20 20 20s20-8.954 20-20v-80c0-11.046-8.954-20-20-20s-20 8.954-20 20v20h-176c-11.046 0-20 8.954-20 20s8.954 20 20 20z"/></g></svg>